<?xml version="1.0" standalone="no"?>
<!DOCTYPE svg PUBLIC "-//W3C//DTD SVG 20010904//EN"
 "http://www.w3.org/TR/2001/REC-SVG-20010904/DTD/svg10.dtd">
<svg version="1.0" xmlns="http://www.w3.org/2000/svg"
 width="300.000000pt" height="285.000000pt" viewBox="0 0 300.000000 285.000000"
 preserveAspectRatio="xMidYMid meet">
<metadata>
Created by potrace 1.10, written by Peter Selinger 2001-2011
</metadata>
<g transform="translate(0.000000,285.000000) scale(0.100000,-0.100000)"
fill="#000000" stroke="none">
<path d="M1453 2455 l-42 -25 37 -50 36 -49 31 62 c43 89 21 111 -62 62z"/>
<path d="M1531 2380 l-33 -70 78 -115 c43 -63 80 -115 83 -115 3 0 35 53 72
118 l65 119 -110 64 c-60 35 -113 65 -116 67 -4 1 -21 -29 -39 -68z m138 -31
c39 -23 71 -48 71 -55 0 -15 -68 -141 -80 -149 -9 -6 -120 154 -120 173 0 23
30 72 44 72 7 0 45 -19 85 -41z"/>
<path d="M1178 2297 c-185 -109 -208 -125 -208 -148 0 -18 25 -56 83 -126 45
-54 104 -127 132 -161 l50 -62 51 108 c27 59 81 173 119 254 l68 147 -38 56
c-21 30 -41 55 -44 54 -3 -1 -99 -56 -213 -122z m231 47 c27 -35 27 -44 -8
-118 -16 -33 -52 -110 -81 -171 -28 -60 -58 -125 -67 -142 -8 -18 -21 -33 -28
-33 -6 0 -29 21 -51 47 -21 26 -60 71 -85 101 -25 29 -53 67 -63 83 -16 28
-16 29 6 50 22 21 336 208 350 209 4 0 16 -12 27 -26z"/>
<path d="M1779 2247 c-62 -121 -101 -187 -110 -187 -5 0 -9 -5 -9 -11 0 -5 4
-8 8 -5 5 3 67 -80 138 -184 71 -104 131 -190 134 -190 3 0 26 38 53 84 l47
84 0 168 0 169 -115 67 -114 66 -32 -61z m130 -38 c42 -23 79 -47 83 -53 4 -6
8 -80 8 -165 0 -147 -1 -155 -27 -202 -14 -27 -29 -49 -33 -49 -7 0 -49 46
-65 73 -26 42 -111 165 -132 190 -28 35 -29 51 -2 108 25 53 79 139 87 139 3
0 39 -19 81 -41z"/>
<path d="M1413 2128 c-39 -84 -91 -196 -116 -249 l-45 -97 75 -92 c53 -65 78
-88 83 -79 4 8 60 109 124 226 l116 212 -78 115 c-42 63 -80 115 -83 116 -3 0
-37 -69 -76 -152z m135 15 c27 -38 52 -76 55 -85 6 -16 -10 -51 -70 -157 -15
-25 -48 -86 -76 -136 -27 -49 -52 -94 -57 -98 -4 -5 -30 19 -58 54 l-51 62 19
46 c39 96 177 381 184 381 2 0 26 -30 54 -67z"/>
<path d="M971 1825 l0 -270 53 -32 c30 -18 57 -33 60 -33 3 0 17 24 30 53 13
28 42 92 65 141 23 48 40 93 38 100 -3 6 -49 65 -104 132 -54 66 -108 133
-120 150 l-22 29 0 -270z m80 118 c54 -60 129 -163 129 -176 0 -15 -85 -194
-102 -214 -8 -9 -14 -9 -31 0 -12 7 -25 17 -29 22 -11 14 -10 395 0 395 5 0
20 -12 33 -27z"/>
<path d="M1637 1983 c-14 -27 -69 -127 -121 -223 -53 -95 -96 -176 -96 -179 0
-4 41 -56 91 -116 50 -60 97 -118 104 -128 16 -23 10 -25 116 37 l84 48 58
111 58 111 -19 25 c-10 14 -67 98 -127 186 -59 88 -112 164 -116 169 -4 5 -19
-14 -32 -41z m83 -89 c125 -180 164 -242 162 -260 -1 -12 -22 -58 -47 -102
-42 -74 -52 -86 -114 -122 -64 -38 -101 -50 -101 -31 0 4 -34 47 -74 95 -79
91 -94 119 -78 139 10 11 90 156 153 276 43 82 46 82 99 5z"/>
<path d="M1996 1716 l-40 -74 34 -51 c19 -31 37 -48 42 -43 5 5 7 61 6 125
l-3 116 -39 -73z"/>
<path d="M1176 1624 c-36 -75 -66 -140 -66 -144 0 -8 154 -100 168 -100 4 0
18 19 30 43 12 23 35 67 53 99 l31 56 -75 91 -76 91 -65 -136z m105 39 c13
-16 35 -42 47 -60 l23 -32 -25 -48 c-13 -27 -33 -59 -43 -72 l-20 -24 -51 29
c-33 18 -52 36 -52 47 0 20 81 187 90 187 4 0 18 -12 31 -27z"/>
<path d="M1914 1568 c-15 -29 -37 -70 -50 -90 -14 -21 -22 -38 -19 -38 7 0
155 91 155 96 0 6 -52 84 -56 84 -2 0 -16 -24 -30 -52z"/>
<path d="M1355 1467 c-27 -51 -50 -95 -50 -100 0 -4 45 -34 100 -66 l100 -59
45 26 c25 14 49 29 54 33 7 6 -119 171 -188 246 -8 9 -23 -11 -61 -80z m89 -4
c62 -71 106 -129 106 -140 0 -7 -9 -17 -20 -23 -17 -9 -31 -6 -75 16 -30 16
-66 37 -80 49 l-26 20 26 53 c14 28 30 52 35 52 5 0 21 -12 34 -27z"/>
<path d="M1140 983 c-26 -10 -30 -25 -30 -114 0 -101 7 -112 72 -107 l43 3 3
106 c3 104 2 107 -20 113 -27 7 -47 7 -68 -1z m54 -110 c0 -72 -2 -78 -22 -81
-21 -3 -22 0 -22 77 0 77 1 81 23 81 21 0 22 -4 21 -77z"/>
<path d="M1290 937 c-1 -1 -2 -41 -3 -90 -2 -84 -1 -87 21 -87 21 0 22 4 22
70 0 56 3 70 15 70 12 0 15 -14 15 -70 0 -63 2 -70 20 -70 18 0 20 7 20 80 0
56 -4 82 -12 84 -14 5 -98 15 -98 13z"/>
<path d="M1467 932 c-16 -3 -17 -13 -15 -80 l3 -77 33 0 c24 0 32 -4 32 -17 0
-14 -8 -18 -35 -18 -24 0 -35 -5 -35 -15 0 -19 80 -21 98 -3 8 8 12 48 12 114
l0 102 -37 -1 c-21 -1 -46 -3 -56 -5z m53 -82 c0 -45 -6 -55 -27 -47 -4 1 -7
23 -7 50 -1 38 2 47 16 47 15 0 18 -9 18 -50z"/>
<path d="M1812 933 l-43 -4 3 -82 3 -82 53 -2 52 -2 0 89 c0 66 -3 90 -12 88
-7 -1 -32 -3 -56 -5z m28 -89 c0 -47 -3 -55 -17 -52 -14 2 -19 15 -21 56 -3
47 -1 52 17 52 19 0 21 -6 21 -56z"/>
<path d="M1614 917 c-3 -8 -4 -45 -2 -83 l3 -69 50 0 c44 0 50 3 53 23 3 16
-2 22 -16 22 -11 0 -22 -5 -24 -12 -7 -19 -38 -1 -38 22 0 17 6 20 41 20 l40
0 -3 43 -3 42 -48 3 c-33 2 -49 -1 -53 -11z m66 -32 c0 -18 -5 -25 -20 -25
-20 0 -28 28 -13 43 15 16 33 6 33 -18z"/>
</g>
</svg>
